HIERARCHY
ROOT Hips
{
    OFFSET 0.000000 0.000000 0.000000
    CHANNELS 6 Xposition Yposition Zposition Zrotation Xrotation Yrotation
    JOINT Spine
    {
        OFFSET -0.000000 7.246840 0.000000
        CHANNELS 3 Zrotation Xrotation Yrotation
        JOINT Spine1
        {
            OFFSET -0.000000 20.289354 0.000000
            CHANNELS 3 Zrotation Xrotation Yrotation
            JOINT Neck
            {
                OFFSET -0.000000 20.206032 1.836912
                CHANNELS 3 Zrotation Xrotation Yrotation
                JOINT Head
                {
                    OFFSET -0.000000 12.372654 -1.767522
                    CHANNELS 3 Zrotation Xrotation Yrotation
                    End Site
                    {
                        OFFSET -0.000000 22.094025 0.000000
                    }
                }
            }
            JOINT LeftShoulder
            {
                OFFSET 3.465871 17.201674 -0.568930
                CHANNELS 3 Zrotation Xrotation Yrotation
                JOINT LeftArm
                {
                    OFFSET 14.070313 0.000000 0.000000
                    CHANNELS 3 Zrotation Xrotation Yrotation
                    JOINT LeftForeArm
                    {
                        OFFSET 26.549477 0.000000 0.000000
                        CHANNELS 3 Zrotation Xrotation Yrotation
                        JOINT LeftHand
                        {
                            OFFSET 18.880413 0.000000 0.000000
                            CHANNELS 3 Zrotation Xrotation Yrotation
                            End Site
                            {
                                OFFSET 13.256415 0.000000 0.000000
                            }
                        }
                    }
                }
            }
            JOINT RightShoulder
            {
                OFFSET -3.526370 17.201674 -0.568930
                CHANNELS 3 Zrotation Xrotation Yrotation
                JOINT RightArm
                {
                    OFFSET -14.070313 0.000000 0.000000
                    CHANNELS 3 Zrotation Xrotation Yrotation
                    JOINT RightForeArm
                    {
                        OFFSET -26.549477 0.000000 0.000000
                        CHANNELS 3 Zrotation Xrotation Yrotation
                        JOINT RightHand
                        {
                            OFFSET -18.880413 0.000000 0.000000
                            CHANNELS 3 Zrotation Xrotation Yrotation
                            End Site
                            {
                                OFFSET -13.256415 0.000000 0.000000
                            }
                        }
                    }
                }
            }
        }
    }
    JOINT LeftUpLeg
    {
        OFFSET 8.837609 0.000000 0.000000
        CHANNELS 3 Zrotation Xrotation Yrotation
        JOINT LeftLeg
        {
            OFFSET -0.000000 -41.345005 0.000000
            CHANNELS 3 Zrotation Xrotation Yrotation
            JOINT LeftFoot
            {
                OFFSET -0.000000 -35.500874 0.000000
                CHANNELS 3 Zrotation Xrotation Yrotation
                JOINT LeftToeBase
                {
                    OFFSET -0.000000 -5.744446 13.256415
                    CHANNELS 3 Zrotation Xrotation Yrotation
                    End Site
                    {
                        OFFSET -0.000000 0.000000 3.535044
                    }
                }
            }
        }
    }
    JOINT RightUpLeg
    {
        OFFSET -8.837609 0.000000 0.000000
        CHANNELS 3 Zrotation Xrotation Yrotation
        JOINT RightLeg
        {
            OFFSET -0.000000 -41.345005 0.000000
            CHANNELS 3 Zrotation Xrotation Yrotation
            JOINT RightFoot
            {
                OFFSET -0.000000 -35.500874 0.000000
                CHANNELS 3 Zrotation Xrotation Yrotation
                JOINT RightToeBase
                {
                    OFFSET -0.000000 -5.744446 13.256415
                    CHANNELS 3 Zrotation Xrotation Yrotation
                    End Site
                    {
                        OFFSET -0.000000 0.000000 3.535044
                    }
                }
            }
        }
    }
}
MOTION
Frames:    7
Frame Time:    0.010000
-1.737121    82.468155    -74.214935    4.057626    3.474292    -0.731049    -8.024548    -13.603566    -2.369577    5.765628    3.183258    -1.571271    0.176218    32.863319    -1.915428    0.040859    -11.883315    -1.953403    18.790983    1.794917    7.131467    -33.475113    11.041134    -9.594229    6.329870    -8.968885    -10.846798    -31.361708    -8.644856    0.974846    -15.814575    0.926397    11.631252    23.128057    5.498135    9.139868    -3.629877    -5.442333    0.856269    6.477250    -4.719316    12.300950    -3.382621    4.797226    -1.240564    -2.506605    -8.919823    -4.036509    4.797141    2.749686    -3.725280    0.294272    -2.298430    -0.417789    -8.239646    3.789393    2.810047    8.477352    -10.323093    3.367159    -3.326301    -0.915042    -8.758323    0.324718    2.001667    -0.570135    
-1.742119    82.468315    -74.215698    4.057889    3.477903    -0.745007    -8.020982    -13.609963    -2.371437    5.763095    3.185497    -1.573117    0.148584    32.851311    -1.898716    0.055961    -11.882666    -1.936970    18.790045    1.821104    7.128463    -33.465412    11.006949    -9.588235    6.344489    -8.987337    -10.841337    -31.406340    -8.661937    0.972293    -15.819769    0.910213    11.644817    23.099579    5.522707    9.126336    -3.629488    -5.421396    0.846103    6.572023    -4.687783    12.312915    -3.385647    4.789806    -1.205877    -2.505363    -8.909472    -4.027760    4.806915    2.726173    -3.753052    0.272043    -2.270073    -0.386161    -8.240033    3.784457    2.822974    8.484076    -10.327635    3.351556    -2.999670    -0.841171    -8.812032    0.280054    1.719542    -0.493159    
-1.749174    82.467712    -74.216827    4.060659    3.470899    -0.758656    -8.030489    -13.598558    -2.374217    5.776657    3.178747    -1.575660    0.164698    32.874771    -1.898723    -0.003350    -11.938555    -1.948657    18.770584    1.843904    7.142048    -33.432388    10.992066    -9.600461    6.345144    -9.037070    -10.836370    -31.447636    -8.708701    0.959334    -15.837010    0.909622    11.649127    23.072073    5.521759    9.129751    -3.611781    -5.395801    0.836092    6.650664    -4.654142    12.312605    -3.373826    4.790037    -1.239534    -2.486341    -8.912688    -4.131149    4.753793    2.744619    -3.682477    0.244712    -2.316145    -0.347465    -8.247298    3.787361    2.842610    8.503311    -10.325643    3.348874    -3.123811    -0.796966    -8.848812    0.197333    1.657183    -0.347719    
-1.755384    82.468033    -74.217354    4.061750    3.472371    -0.768169    -8.030083    -13.595017    -2.375084    5.771691    3.168765    -1.576188    0.160304    32.868793    -1.888162    -0.008966    -11.942749    -1.939773    18.791983    1.834757    7.146179    -33.456741    10.955703    -9.591795    6.359210    -9.032521    -10.828487    -31.470728    -8.709919    0.982441    -15.842524    0.890546    11.663043    23.061031    5.546960    9.088261    -3.600379    -5.397963    0.849485    6.695990    -4.650957    12.314466    -3.369936    4.785639    -1.227121    -2.526951    -8.880379    -3.995378    4.811596    2.702244    -3.719579    0.289670    -2.252549    -0.411138    -8.245978    3.783957    2.853976    8.504051    -10.330013    3.334488    -3.021732    -0.825275    -8.827792    0.235316    1.665433    -0.414612    
-1.759637    82.467690    -74.216934    4.064969    3.469301    -0.779203    -8.028436    -13.589893    -2.373247    5.765406    3.163003    -1.574440    0.148310    32.869766    -1.888305    -0.004339    -11.955092    -1.940833    18.784712    1.838127    7.145289    -33.435650    10.947452    -9.592716    6.372436    -9.030752    -10.821992    -31.533428    -8.721165    1.030151    -15.851490    0.901891    11.661700    23.053001    5.518804    9.074810    -3.603456    -5.404233    0.845594    6.739497    -4.651142    12.339579    -3.376214    4.791092    -1.204996    -2.506589    -8.898860    -4.041531    5.158362    2.547553    -3.788435    0.227682    -2.006256    -0.322660    -8.245168    3.786333    2.864976    8.493976    -10.331421    3.366554    -3.067354    -0.809345    -8.867847    0.184900    1.656504    -0.325813    
-1.765996    82.468582    -74.218605    4.065231    3.472108    -0.792265    -8.030255    -13.584512    -2.368129    5.765144    3.151223    -1.568841    0.159898    32.865467    -1.873260    -0.019816    -11.969911    -1.926989    18.790724    1.843213    7.139659    -33.452305    10.919004    -9.580471    6.399955    -9.014529    -10.843248    -31.553732    -8.713587    1.074052    -15.856709    0.898567    11.652892    23.051655    5.511196    9.052304    -3.600506    -5.432097    0.888601    6.703802    -4.687822    12.234140    -3.365739    4.778658    -1.224433    -2.548429    -8.860446    -3.904709    4.842721    2.690223    -3.738019    0.309780    -2.264155    -0.439713    -8.242815    3.776463    2.867442    8.500650    -10.326816    3.347412    -3.040517    -0.820783    -8.835546    0.215689    1.685185    -0.379953    
-1.769323    82.468178    -74.216797    4.074195    3.467584    -0.803264    -8.029264    -13.578723    -2.363042    5.755534    3.148422    -1.563923    0.134213    32.867962    -1.869210    0.018184    -11.998732    -1.917750    18.783083    1.827119    7.134395    -33.449471    10.889820    -9.569058    6.394584    -8.981367    -10.838377    -31.497606    -8.690388    1.109115    -15.860722    0.911441    11.641246    23.045727    5.479322    9.049536    -3.610723    -5.434931    0.875146    6.726356    -4.688920    12.228342    -3.379642    4.781615    -1.226518    -2.510185    -8.870439    -3.985915    4.812922    2.701644    -3.716638    0.265121    -2.310172    -0.376429    -8.252123    3.780567    2.866264    8.505267    -10.329490    3.360523    -3.031980    -0.823242    -8.819638    0.238790    1.662559    -0.420745    
